<svg width="54" height="300" xmlns="http://www.w3.org/2000/svg" xmlns:svg="http://www.w3.org/2000/svg" preserveAspectRatio="xMidYMid meet">
                <g>
                 <title>Layer 1</title>
                 <g id="svg_1" fill="#000000" transform="translate(0.000000,300.000000) scale(0.100000,-0.100000)">
                  <path id="svg_2" d="m140,2789c-124,-246 -141,-289 -129,-312c14,-24 46,-21 63,6c8,12 46,85 85,162l70,140l1,-1131l0,-1131l-85,-57c-47,-31 -85,-62 -85,-70c0,-56 36,-59 107,-11c29,19 55,35 58,35c3,0 5,-15 5,-33c0,-30 -7,-38 -77,-87c-101,-70 -109,-82 -77,-115c15,-14 19,-14 58,8c22,13 53,31 69,41l27,18l0,-35c0,-33 -6,-39 -79,-91c-90,-62 -95,-68 -86,-96c10,-33 50,-24 130,30l74,50l78,-50c87,-57 126,-63 131,-20c2,21 -10,34 -83,83c-79,54 -85,60 -85,92c0,19 2,35 5,35c3,0 29,-16 57,-35c62,-43 101,-44 106,-4c3,23 -8,33 -82,83c-80,54 -86,60 -86,92c0,19 2,34 5,34c3,0 30,-16 59,-36c64,-42 99,-43 104,-2c3,24 -6,33 -82,84l-86,57l0,1131l1,1131l82,-160c84,-164 105,-188 133,-150c16,22 19,14 -97,250c-123,250 -132,265 -164,265c-22,0 -35,-20 -125,-201zm260,-60c62,-126 110,-233 106,-236c-11,-11 -24,9 -92,143c-78,153 -87,165 -110,142c-15,-14 -16,-120 -16,-1136c0,-616 3,-1125 6,-1131c4,-6 38,-31 76,-56c69,-45 87,-62 76,-72c-5,-6 -47,13 -98,45c-38,23 -60,3 -56,-52c3,-38 7,-44 71,-87c81,-55 102,-74 89,-83c-5,-3 -36,11 -68,30c-67,41 -87,37 -92,-16c-4,-34 14,-80 30,-80c19,0 128,-83 128,-97c0,-20 -14,-14 -98,42c-38,25 -73,45 -79,45c-5,0 -44,-23 -88,-50c-84,-53 -95,-57 -95,-37c0,7 28,32 63,55c91,60 109,81 101,120c-8,38 -29,59 -46,45c-16,-12 -107,-63 -113,-63c-15,0 -1,31 18,41c12,7 27,19 34,28c7,9 13,13 13,9c0,-4 8,-1 18,6c81,66 81,67 80,100c-1,21 -8,38 -20,45c-17,10 -29,7 -79,-23c-32,-19 -61,-31 -64,-25c-10,14 1,25 76,75c39,25 74,56 79,68c12,30 4,2231 -8,2252c-18,33 -42,4 -111,-135c-66,-132 -85,-160 -98,-148c-6,7 47,122 143,314c87,172 82,163 98,157c7,-3 64,-108 126,-235z"/>
                 </g>
                 <path id="svg_4" d="m-109,1541" opacity="0.5" stroke-width="5" stroke="#000000" fill="#000000"/>
                 <path d="m26.23431,10.41348c0,1.64084 0,2.67999 0,3.51337c0,0.89918 -0.0912,1.7659 0.06779,2.67675c0.15251,0.87374 0.38287,1.71325 0.43512,2.61743l0.10965,0.84023l0.47698,0.59949" id="svg_5" stroke-width="5" stroke="#000000" fill="none"/>
                 <path d="m21.02757,20.06126c-0.78918,0.39816 -1.45004,0.83529 -2.06013,1.39495c-0.69359,0.63625 -1.04536,1.50643 -1.5572,2.25301c-0.41906,0.61126 -0.86887,1.4449 -1.50082,2.18341c-0.55884,0.65308 -1.06144,1.33575 -1.62637,1.98193c-0.55972,0.64023 -1.22373,1.32411 -1.77616,2.01825c-0.5458,0.6858 -0.87447,1.54177 -1.40712,2.21327c-0.48283,0.6087 -0.84749,1.39069 -1.09824,2.16651c-0.24882,0.76984 -0.30628,1.68964 -0.30628,2.55424c0,0.9012 0.20662,1.81929 0,2.68313c-0.16189,0.67685 -1.00646,1.04733 -1.67815,1.60796c-0.66773,0.55733 -1.08822,1.36879 -1.4644,2.15033c-0.36565,0.75967 -0.53227,1.58915 -0.82226,2.45985c-0.26512,0.79603 -0.05494,1.80184 -0.47624,2.58737c-0.36888,0.68778 -0.83194,0.33809 -0.43737,-0.50005c0.40818,-0.86703 0.74739,-1.49278 1.07606,-2.20194c0.46402,-1.00117 0.73039,-1.6245 1.23859,-2.60398c0.40332,-0.77734 0.98602,-1.48504 1.41202,-2.20743c0.41867,-0.70996 0.83927,-1.55533 0.99541,-2.44385c0.15792,-0.89869 0.22099,-1.79251 0.53599,-2.59699c0.31929,-0.81544 0.3606,-1.80464 0.93264,-2.49426c0.53868,-0.64941 1.50289,-0.84798 1.91649,-1.52343c0.44473,-0.7263 0.79619,-1.39334 1.30413,-1.90975c0.63098,-0.64149 0.90444,-1.41998 1.18428,-2.26871c0.27433,-0.83202 0.44171,0.01066 0.40286,0.86963c-0.03999,0.88412 -0.36891,1.72817 -0.85431,2.47045c-0.47991,0.73388 -0.86552,1.54548 -0.96909,2.46322c-0.0971,0.86042 -0.40156,1.67484 -0.74819,2.35904c-0.34476,0.6805 -0.64288,0.06952 -0.45015,-0.76876c0.19897,-0.86546 0.63014,-1.64826 0.95669,-2.4963c0.25218,-0.65492 0.53074,-1.62227 0.84865,-2.52361c0.27667,-0.78443 0.75824,-1.55458 1.15577,-2.40715c0.3882,-0.83255 0.73166,-1.59394 1.06156,-2.46779c0.31228,-0.82718 0.65413,-1.58457 0.85033,-2.42325c0.20569,-0.87927 0.53781,-1.67454 0.74477,-2.584c0.18332,-0.8056 0.22379,-1.70375 0.74752,-2.2977c0.58027,-0.65806 1.36342,-0.99715 2.01378,-1.58009c0.62349,-0.55885 0.83392,-1.56599 0.9269,-2.43548c0.09285,-0.86827 0.31836,-1.71374 0.52455,-2.54063c0.21072,-0.84507 0.6686,-1.60032 1.00664,-2.39959c0.33416,-0.7901 0.60051,-1.61731 0.96253,-2.35835c0.35837,-0.73357 0.79566,-1.59958 1.56447,-2.00368c0.75778,-0.39829 1.82155,-0.17027 1.91424,0.57537c0.11139,0.89606 0,1.78367 0,2.63239c0,0.9315 0.23968,1.43415 1.04686,1.7611c0.82841,0.33555 1.40337,0.59558 1.40337,-0.31274c0,-0.39334 0,0.45893 0,1.37757c0,0.90577 -0.02011,1.76723 0.3231,2.64862c0.29876,0.76724 0.72402,1.56566 0.90753,2.38701c0.19943,0.89263 1.02516,2.50951 0.14762,2.68219c-0.67738,0.13329 -0.81132,-1.3454 -1.31125,-1.96616c-0.551,-0.68417 -1.09875,-1.65674 -1.93979,-1.91909c-0.70914,-0.22121 -1.13386,0.87194 -1.29209,1.77233c-0.15755,0.89653 0.05349,1.80812 -0.134,2.60656c-0.21118,0.89935 -0.41039,1.76838 -0.52981,2.6355c-0.11961,0.86854 0.84894,1.88973 0.32874,2.40184c-0.62673,0.61698 -1.81531,-0.33943 -2.37346,-1.03379c-0.53732,-0.66846 -0.80007,-1.62602 -0.86404,-2.48121c-0.06773,-0.90554 -0.00069,-1.78341 -0.00069,-2.66751c0,-0.87557 -0.59428,-2.04369 0.0339,-2.66789c0.60787,-0.60402 1.73591,-0.23589 2.61978,-0.17175c0.88927,0.06453 1.77771,0.29152 2.46138,0.87085c0.69875,0.59211 1.04369,1.45378 1.22981,2.28341c0.18634,0.83058 0.24012,1.77688 0.24012,2.69234c0,0.86253 0.03325,1.00955 0,0.10031c-0.02154,-0.58903 0.62112,-1.28227 1.45278,-1.4928c0.86881,-0.21993 1.74714,-0.15745 2.65646,-0.16621l0.62045,-0.4586" id="svg_6" stroke-width="5" stroke="#000000" fill="none"/>
                 <path d="m23.01838,18.22359c1.04645,-0.48494 0.94779,-1.36595 1.13976,-2.22708c0.19369,-0.86881 0.40999,-1.70629 0.89107,-2.46838c0.46399,-0.73501 1.19658,-1.33988 1.33823,-2.199c0.14401,-0.87343 0.10622,-1.64051 -0.2329,-0.90288c-0.37396,0.81342 -0.69361,1.66323 -1.06307,2.42277c-0.41462,0.85236 -0.50075,1.78179 -1.1024,2.29382c-0.62991,0.53608 -1.39402,1.01341 -2.00653,1.66799c-0.64165,0.68571 -1.16713,1.31312 -1.85191,1.9367l-0.31511,0.84921l0.14395,0.7708" id="svg_7" stroke-width="5" stroke="#000000" fill="none"/>
                 <path d="m24.54977,21.74579c-1.13254,0 -2.03675,0 -2.90883,0l-0.90209,-0.02614l-0.32384,-0.76508" id="svg_8" stroke-width="5" stroke="#000000" fill="none"/>
                 <path d="m34.65697,18.83614c0.37966,0.91565 0.64138,1.70565 1.01797,2.45829c0.3954,0.79024 0.66089,1.6003 0.8011,2.45748c0.14368,0.87842 0.2321,1.74986 0.6963,2.49454c0.43605,0.69953 0.99154,1.31314 1.35661,2.00531c0.39649,0.75173 0.94411,1.47562 1.34364,2.22516c0.42005,0.78804 0.8979,1.53498 1.24666,2.32552c0.32912,0.74604 0.14357,1.6639 0.27585,2.53418c0.13243,0.87124 0.77106,1.51782 1.37825,2.15699c0.56412,0.59383 0.92009,1.40788 1.53139,2.01315c0.59109,0.58525 1.43456,0.86855 2.07057,1.38144c0.59373,0.4788 0.5328,1.44502 0.5328,2.32751c0,0.88841 -0.03502,1.8168 0.55855,2.37455c0.61403,0.57698 1.18068,1.10847 1.43226,1.79655l0.28767,0.73285l0.12825,0.84122" id="svg_9" stroke-width="5" stroke="#000000" fill="none"/>
                 <polyline id="svg_10" points="49.66463066637516,48.54518002271652 49.66463066637516,49.45115252202749 " stroke-linecap="round" stroke-width="5" stroke="#000000" fill="none"/>
                 <path d="m35.72895,18.683c-0.45942,-0.72044 -1.01178,-1.81566 -1.75845,-1.36498c-0.6256,0.37761 -0.23236,1.57774 -0.54191,2.34507l-0.43754,0.71973l-0.01861,0.89068" id="svg_11" stroke-width="5" stroke="#000000" fill="none"/>
                 <polyline id="svg_12" points="32.97243958711624,22.05206941068172 33.99847335070371,22.052069410681717 " stroke-linecap="round" stroke-width="5" stroke="#000000" fill="none"/>
                 <path d="m27.30628,24.04288c0,1.07749 0,1.96876 0,2.82266c0,0.92774 0,1.81154 0,2.68716c0,0.89528 0,1.78905 0,2.68632c0,0.91565 0,1.80896 0,2.63897c0,0.90822 -0.89344,2.68913 0,2.68913c0.84706,0 0.01111,-1.69099 -0.13027,-2.5952c-0.14272,-0.9128 -0.13748,-1.81659 -0.17601,-2.69954c-0.03832,-0.87813 -0.15314,-1.76233 -0.15314,-2.65483c0,-0.90715 0,-1.77295 0,-2.66184c0,-0.89119 0.19051,-1.96848 0,-1.96848c-0.83982,0 0,1.76457 0,2.5611c0,0.9611 0,1.84951 0,2.72486c0,0.88747 0,1.76743 0,2.65901c0,0.86483 0,1.80853 0,2.70878c0,0.85722 0,1.77606 0,2.66937c0,0.88841 0,1.76355 0,2.65761c0,0.88502 0,1.77323 0,2.65919c0,0.8829 0,1.75692 0,2.67645c0,0.85607 0,1.7646 0,2.63994c0,0.92001 0,1.7952 0,2.68627c0,0.89061 0,1.76263 0,2.66128c0,0.90689 0,1.78852 0,2.64183c0,0.91761 0,1.7989 0,2.68629c0,0.92187 0,1.78966 0,2.67787c0,0.88821 0,1.77805 0,2.6646c0,0.88824 0,1.78359 0,2.64209c0,0.92384 0,1.7756 0,2.70253c0,0.84245 0,1.7523 0,2.64997c0,0.86483 0,1.77573 0,2.66169c0,0.87833 0,1.77935 0,2.66299c0,0.91761 0.04407,1.7814 0,2.65906c-0.04406,0.87748 -0.15314,1.74431 -0.15314,2.66769c0,0.85016 -0.10281,1.75933 -0.15314,2.61631c-0.05507,0.93758 -0.30628,1.76113 -0.30628,2.62593c0,0.91524 0,1.77943 0,2.67001c0,0.89964 0,1.77979 0,2.67606c0,0.87289 0,1.77132 0,2.66782c0,0.8742 0.06396,1.75265 0.28877,2.5608c0.24067,0.86517 1.03998,1.39571 1.37716,0.71649c0.38188,-0.76926 0.01861,-1.74271 0.01861,-2.65281c0,-0.88801 0,-1.77292 0,-2.6338c0,-0.90352 0,-1.81033 0,-2.67662c0,-0.91886 0.02771,-1.78892 0,-2.68326c-0.02702,-0.87208 -0.10159,-0.13634 -0.15314,0.75713c-0.05093,0.88261 -0.31647,1.68942 -0.45947,2.56274c-0.13632,0.83254 -0.23306,1.72423 -0.30942,2.59132c-0.07685,0.87265 -0.14995,1.76335 -0.14995,2.63869c0,0.89169 0,1.79913 0,2.67953l0,0.89993l0,0.88751" id="svg_13" stroke-width="5" stroke="#000000" fill="none"/>
                 <path d="m27.20368,103.25866c0,1.60651 0,2.51813 0,3.41806c0,0.81181 -0.0159,1.72061 -0.224,2.61914c-0.19295,0.83311 -0.37813,1.70005 -0.59583,2.56483c-0.21893,0.86971 -0.62927,1.59665 -0.8095,2.3723c-0.20818,0.89589 0,1.79552 0,2.69366c0,0.88988 0.69793,1.08466 1.011,0.29833c0.31785,-0.79833 0.211,-1.7059 0.211,-2.58927c0,-0.90771 0,-1.80475 0,-1.72926c0,0.8812 0,1.83886 0,2.68784c0,0.89831 0,1.76103 0,2.65445c0,0.89586 -0.01263,1.75999 -0.11704,2.64738c-0.09857,0.83772 -0.08663,1.7347 -0.08663,2.64857c0,0.89522 0,1.77879 0,2.65747c0,0.8854 0,1.74731 0,2.66734c0,0.89966 0,1.79091 0,2.65797c0,0.9165 0,1.79959 0,2.6884c0,0.8649 0,1.74171 0,2.6368c0,0.89015 0,1.77977 0,2.65851c0,0.92615 0,1.80388 0,2.68837c0,0.89642 0,1.76611 0,2.65366c0,0.90781 0,1.78204 0,2.68242c0,0.88649 -0.19784,1.75348 -0.20367,2.65201c-0.00582,0.89856 -0.11839,1.76863 -0.20366,2.63597c-0.08574,0.8721 0,1.79282 0,2.62459c0,0.89836 0,1.79793 0,2.67834c0,0.90746 0,1.8167 0,2.67101c0,0.88989 -0.6151,2.48138 0.14365,2.54074c0.77508,0.06064 0.26368,-1.6275 0.26368,-2.50343c0,-0.88632 0,-1.78021 0,-2.63283c0,-0.90753 0.1034,-1.80193 0.3055,-2.60123c0.21593,-0.85399 0.48426,-2.29276 1.2372,-2.02933c0.80184,0.28055 0.08663,1.7271 0.08663,2.59743c0,0.89314 -0.13728,1.80939 -0.20339,2.66612c-0.06769,0.8772 -0.19156,1.76404 -0.20394,2.63136c-0.01254,0.87894 0,1.7719 0,2.64966c0,0.86426 0,1.79108 0,2.63316c0,0.93333 0,1.77658 0,2.73483c0,0.86218 0.01552,1.77748 -0.45024,2.34541c-0.57278,0.69843 -0.93097,1.47375 -0.97543,2.39078c-0.04351,0.89752 -0.12405,1.75237 -0.20366,2.63258c-0.07925,0.87613 0,1.65309 0,2.67874c0,0.8643 0,1.76674 0,2.64766c0,0.9165 0,1.731 0,2.68513c0,0.87474 0,1.70047 0,2.64145c0,0.87817 -0.64734,2.03694 0,2.68428c0.14401,0.14401 0.55976,-0.67152 0.81466,-1.49355c0.24993,-0.806 0.20367,-1.71432 0.20367,-2.58873c0,-0.87659 0.10078,-1.75505 0.20367,-2.63815c0.09896,-0.84943 0.26225,-1.73943 0.40309,-2.51668c0.15714,-0.86725 0.30904,-1.74783 0.41158,-2.54674c0.03864,-0.30112 0,0.57243 0,1.43507c0,0.908 0,1.75543 0,2.69664c0,0.89229 0,1.77977 0,2.65825c0,0.92056 0,1.80312 0,2.68567c0,0.86703 0,1.78154 0,2.64467c0,0.91948 0,1.76755 0,2.68459c0,0.82129 0,1.76511 0,2.64481c0,0.88432 0.67627,2.68449 -0.20366,2.64854c-0.86845,-0.03548 -0.01368,-1.78014 -0.20367,-2.58205c-0.2008,-0.84756 0.3857,-2.15733 -0.4095,-2.51904c-0.49607,-0.22565 -1.0129,0.92952 -1.01616,1.83083c-0.00331,0.9165 0,1.79008 0,2.66895c0,0.91557 0,1.78809 0,2.65981c0,0.89175 0,1.77376 0,2.61694c0,0.94562 0,1.85788 0,2.74976c0,0.86206 0,1.74855 0,2.65825c0,0.8868 0,1.74869 0,2.65445c0,0.89613 0,1.75153 0,2.65065c0,0.87604 0,1.78503 0,2.65118c0,0.90997 0,1.82648 0,2.698c0,0.90363 0,1.77641 0,2.65489c0,0.84969 -0.09394,1.75061 -0.19633,2.62865c-0.10324,0.88527 -0.07177,1.81752 -0.00733,2.66069c0.06611,0.86502 0.27146,1.74016 0.40733,2.54881c0.14544,0.86566 -0.26226,2.55811 0.52437,2.43449c0.83387,-0.13103 0.08663,-1.71867 0.08663,-2.63164c0,-0.8649 0,-1.74825 0,-2.592c0,-0.92274 0,-1.83055 0,-2.71832c0,-0.91582 0,-1.74332 0,-2.67313c0,-0.87831 0,-1.78221 0,-0.9631c0,0.91531 0,1.87961 0,2.72621c0,0.88455 0,1.75444 0,2.66975c0,0.84943 0,1.75804 0,2.69545c0,0.85286 0,1.76511 0,2.61775c0,0.89453 0,1.75754 0,2.66348c0,0.86269 0,1.81314 0,2.67233c0,0.88092 0,1.78221 0,2.69138c0,0.86844 -0.12333,1.76082 0.00027,2.66776c0.10275,0.75392 0.26124,1.62959 0.5241,2.4391l0.08663,0.84984" id="svg_15" stroke-width="5" stroke="#000000" fill="none"/>
                 <path d="m28.62934,96.33401c0,1.51853 0,2.47658 0,3.44114c0,0.8316 0,1.78629 0,2.62295c0,0.92274 -0.03275,1.76243 -0.19942,2.68507c-0.14735,0.81564 -1.05148,0.76474 -1.51137,0.03184c-0.47548,-0.75775 -0.72471,-1.63995 -0.7332,-2.5146l0,-0.91296l0,-0.89315" id="svg_16" stroke-width="5" stroke="#000000" fill="none"/>
                 <path d="m27.54309,245.28174c-0.81466,1.67459 -0.81466,2.47549 -0.81466,3.36691c0,0.86137 0,1.77887 0,2.64204c0,0.91003 0,1.78032 0,2.73122c0,0.89568 0,1.769 0,2.66513c0,0.90192 0,1.76511 0,2.67029c0,0.90518 0,1.76944 0,2.57541c0,0.94574 0,1.85999 0,2.71078c0,0.94363 0,1.75827 0,2.68851c0,0.89041 0,1.78058 0,2.68832c0,0.89615 0,1.78064 0,2.68842c0,0.86896 0,1.69629 0,2.67029c0,0.85193 0,1.78311 0,2.67026c0,0.81467 0,1.59351 0,2.64767c0,0.86407 0,1.77487 0,2.64404l0,0.86734" id="svg_17" stroke-width="5" stroke="#000000" fill="none"/>
                 <path d="m22.112,253.15681c-0.93198,0.73755 -1.74203,1.07416 -2.56239,1.35779c-0.75449,0.26086 -1.49032,0.61635 -2.31129,0.91043c-0.74343,0.26631 -1.43962,0.73448 -2.03358,1.36772c-0.55442,0.59106 -1.19032,1.00107 -1.74958,1.58371c-0.53283,0.55511 -1.20933,0.96548 -1.93379,1.43912c-0.72473,0.47382 -1.76161,2.13135 -2.14139,1.3121c-0.21411,-0.46188 1.14007,-0.74469 2.00561,-1.04623c0.7894,-0.27502 1.49855,-0.67239 2.10473,-1.27737c0.641,-0.63974 1.34146,-1.20938 2.15868,-1.55075c0.75951,-0.31726 1.40905,-0.88431 2.27984,-1.20517c0.79851,-0.29422 1.56749,-0.75317 2.33659,-1.1447c0.72268,-0.36789 1.328,-0.8748 2.14528,-1.20357c0.79465,-0.31966 1.28601,-0.99295 1.54822,-1.79259c0.28148,-0.85838 -0.46779,-2.28081 0.3255,-2.63249c0.33502,-0.14853 0.27155,1.14981 0.27155,2.03545c0,0.86897 0,1.76633 0,2.66122c0,0.89491 0.06714,1.91618 0.35886,1.69328c0.7865,-0.60095 0.80909,-1.59993 1.2654,-2.27545c0.55417,-0.82037 0.93872,-1.41365 1.61674,-2.28835c0.51608,-0.66579 0.83232,-1.47435 0.83232,-2.37048l0,-0.87463l0,-0.86455l0,-0.90056" id="svg_18" stroke-width="5" stroke="#000000" fill="none"/>
                 <path d="m44.10793,260.21725c-1.27631,-0.28586 -1.99541,-0.66995 -2.87848,-0.82446c-0.85502,-0.1496 -1.68054,-0.46552 -2.47115,-0.80365c-0.76282,-0.32626 -1.51526,-0.80927 -2.22276,-1.30469c-0.73164,-0.51233 -1.32689,-1.09219 -1.8019,-1.82507c-0.46792,-0.72194 -1.24509,-1.31038 -2.02833,-1.56792c-0.90207,-0.2966 -1.59762,-1.03641 -2.39271,-1.00583c-0.67524,0.02597 -0.59614,1.19463 -0.73284,2.03064c-0.13487,0.82481 -0.48837,1.62163 -0.67889,2.4453c-0.20299,0.87762 -0.52616,1.56387 -0.54311,1.49225c-0.20718,-0.87537 0.00006,-1.67871 0,-2.60901c-0.00007,-0.97173 -0.07213,-1.71646 -0.46816,-2.5876c-0.3708,-0.81564 -0.54136,-1.60451 -0.9356,-2.31654c-0.46627,-0.84215 -0.49713,-1.7126 -0.49713,-2.61598c0,-0.90012 0,-1.81361 0,-2.67572l0.19443,-0.76686l0.89179,-0.00037l0.87938,0.00122" id="svg_19" stroke-width="5" stroke="#000000" fill="none"/>
                 <path d="m45.19415,261.57501" id="svg_20" stroke-width="5" stroke="#000000" fill="none"/>
                 <path d="m27.81465,265.64835c0,2.0423 0,3.06494 0,3.8728c0,0.87796 0,1.68393 0,2.68976c0,0.91772 0,1.55579 0,2.44907c0,1.1416 0,2.02725 0,2.93112c0,0.83316 0,1.74939 0,2.65421c0,0.92691 0,1.77899 0,2.6727c0,0.87018 -0.62638,1.3504 -1.0167,2.11899c-0.40714,0.80173 -0.45267,1.63605 -1.33297,1.88837c-0.81439,0.23343 -1.74563,0.14923 -2.58864,0.33185c-0.85203,0.18457 -1.52907,0.75592 -2.25789,1.06595c-0.83438,0.35492 -1.45601,0.80426 -2.20978,1.31509c-0.80046,0.54248 -1.34626,1.15289 -2.07911,1.63055c-0.76951,0.50156 -1.18363,1.23245 -1.91306,1.64362c-0.81533,0.45959 -1.44069,0.99316 -2.29771,1.24915c-0.76481,0.22845 -2.05762,0.99997 -2.22675,0.42761c-0.22895,-0.77481 1.50096,-0.52457 2.37701,-0.81467c0.86039,-0.28494 1.55779,-0.66718 2.40634,-0.99026c0.86106,-0.32785 1.52698,-0.95575 2.37017,-1.06543c0.85018,-0.1106 1.90084,0.09961 2.41896,-0.47192c0.66772,-0.73654 0.94983,-1.53284 1.69138,-1.9733c0.76634,-0.4552 1.54367,-0.77612 2.36854,-1.1637c0.81545,-0.38315 1.27202,-1.15649 1.66517,-1.95917c0.38295,-0.78183 0.99425,-1.39471 0.9957,-2.30823c0.00117,-0.73682 -0.14367,0.09985 -0.26178,1.02502c-0.10323,0.80862 -0.50553,1.50208 -1.26857,2.04929c-0.57914,0.41534 -1.41397,0.43991 -2.16352,0.75027c-0.84044,0.34799 -1.67937,0.62149 -2.4878,1.02576c-0.74472,0.37241 -1.52427,0.86392 -2.23833,1.35776c-0.65879,0.4556 -1.41326,0.86609 -2.06273,1.44141c-0.67661,0.59937 -1.16779,1.30392 -1.73727,1.88202c-0.5669,0.57547 -1.04164,1.17749 -1.85558,1.55695l-0.45825,0.58273l-0.81466,0.27719" id="svg_21" stroke-width="5" stroke="#000000" fill="none"/>
                 <path d="m28.0862,284.65717c0.96891,0.24875 1.65804,0.72409 2.15814,1.43802c0.46231,0.65997 1.05328,1.38831 1.59837,2.09219c0.4806,0.62061 1.01245,1.15771 1.68889,1.54907c0.76577,0.44302 1.37058,0.89493 2.26386,0.89493c0.88998,0 1.63325,0.3002 2.34515,0.82443c0.68692,0.50583 1.3384,0.89655 2.11125,1.27087c0.79515,0.38513 1.67192,0.3468 2.47549,0.69736c0.69902,0.30496 1.84551,1.08679 1.18416,1.53546c-0.66351,0.4501 -1.65128,-0.50613 -2.38334,-1.06949c-0.61792,-0.47552 -1.36424,-1.01715 -1.86974,-1.39905c-0.92247,-0.69693 -1.60459,-1.30582 -2.35529,-1.74448c-0.76613,-0.44769 -1.42604,-1.00797 -2.05929,-1.59705c-0.67042,-0.62366 -1.19602,-1.33118 -1.45499,-2.15656c-0.2193,-0.69894 -1.11772,-0.70639 -2.00987,-0.70639c-0.8358,0 -1.72926,0 -2.6009,0c-0.91917,0 -1.77511,0 -2.67667,0l-0.91346,-0.06015l-0.75207,-0.42865l-0.87341,-0.31036" id="svg_22" stroke-width="5" stroke="#000000" fill="none"/>
                 <path d="m8.53427,277.86829c1.11337,0 2.03464,0.00403 2.7427,-0.45184c0.68753,-0.44266 1.03419,-1.17487 1.65648,-1.82849c0.56188,-0.59018 1.32918,-0.96655 1.98669,-1.56125c0.64892,-0.58694 1.71176,-0.69952 2.29821,-1.32361c0.54269,-0.57755 1.17326,-0.99234 1.86128,-1.44263c0.58576,-0.38336 1.37102,-0.6839 2.16375,-0.91858c0.86206,-0.25522 1.45008,-0.48117 2.32338,-0.62146c0.85567,-0.13748 1.32938,-1.32938 0.98923,-1.32938c-0.86896,0 0.03034,1.75583 0,2.63406c-0.03007,0.87054 -0.9342,0.92413 -1.77076,1.14053c-0.81419,0.21063 -1.56947,0.62634 -2.32976,0.81467c-0.87234,0.21606 -1.10722,0.81107 -0.29477,0.49652c0.79079,-0.30618 1.34534,-1.10898 1.66545,-1.92023c0.32363,-0.82019 0.82016,-1.60269 1.49047,-2.09964c0.67746,-0.50226 1.01814,-1.47809 1.84259,-1.60321c0.78083,-0.1185 1.35818,0.89651 2.00371,1.49063c0.67839,0.62436 1.54694,0.73761 2.39258,0.92038c0.85737,0.18533 1.78972,0.07709 2.58973,0.36731c0.73703,0.2674 1.34311,0.81693 2.01218,1.24649c0.71018,0.45596 1.55164,0.6514 2.38465,0.83997c0.84481,0.19122 1.67356,0.41605 2.35239,0.80453c0.69987,0.40054 1.47327,0.7182 2.25349,1.08661c0.72554,0.34259 1.35218,0.87341 1.87667,1.47324c0.4791,0.54791 1.09787,0.94611 1.62354,1.39832c0.42756,0.36783 -0.52119,0.49844 -1.34619,0.36389c-0.93347,-0.15225 -1.71378,-0.61478 -2.54578,-0.79028c-0.84953,-0.1792 -1.56477,-0.53723 -2.4654,-0.93613c-0.76401,-0.33841 -1.68251,-0.55914 -2.46961,-0.88885c-0.81194,-0.34012 -1.45626,-0.95187 -2.03231,-1.48123l-0.49785,-0.54202l-0.28205,-0.73465l-0.61263,-0.62241" id="svg_23" stroke-width="5" stroke="#000000" fill="none"/>
                 <path d="m16.68091,275.15274c0.91043,0 1.92904,0.3772 2.66956,-0.07785c0.72886,-0.44788 1.21007,-1.09122 1.78393,-1.6264c0.64748,-0.60382 1.35143,-1.04636 1.87011,-1.68619c0.52236,-0.64438 1.09396,-1.31989 1.91736,-1.68884c0.8218,-0.36826 1.64707,-0.47427 2.44562,-0.87537c0.75627,-0.37985 1.60674,-0.46747 2.34804,-0.74368c0.8184,-0.30493 1.55695,-0.75339 1.23938,-1.4512c-0.34958,-0.76813 -1.10091,-1.20596 -1.5341,-1.8205c-0.46805,-0.66397 -0.51994,-0.20892 -0.51994,0.62894c0,0.96817 0,1.84909 0,2.71396c0,0.9245 -0.11194,1.76743 -0.24838,2.60812c-0.14361,0.88486 0.47395,1.30347 1.28029,1.49789l0.89613,0.13724l0.35012,0.4801" id="svg_25" stroke-width="5" stroke="#000000" fill="none"/>
                 <path d="m29.17242,248.81195" id="svg_26" stroke-width="5" stroke="#000000" fill="none"/>
                 <polyline id="svg_27" points="45.737253308296204,260.7603522539139 45.07864276655515,261.03190690279007 " stroke-linecap="round" stroke-width="5" stroke="#000000" fill="none"/>
                </g>
               </svg>